<?xml version="1.0" encoding="UTF-8"?>
<svg version="1.1" xmlns="http://www.w3.org/2000/svg" width="491" height="491">
<path d="M0 0 C162.03 0 324.06 0 491 0 C491 162.03 491 324.06 491 491 C328.97 491 166.94 491 0 491 C0 328.97 0 166.94 0 0 Z " fill="#F3F3F3" transform="translate(0,0)"/>
<path d="M0 0 C18.90761925 3.05541376 37.62673766 9.49279692 50 25 C57 36.12754159 57 36.12754159 57 41 C57.94875 41.20625 58.8975 41.4125 59.875 41.625 C72.46351836 45.29770656 82.92674883 55.12095449 89.47265625 66.1796875 C100.9691373 87.4084837 102.94267133 111.48130293 98.06738281 135.02685547 C96.77122449 141.3336971 95.41357928 148.48130416 98.9375 154.25 C105.82126574 165.79696189 102.14697577 184.54260297 99 197 C97.60387492 201.1567478 95.94456666 205.07310811 94 209 C93.67386719 209.680625 93.34773438 210.36125 93.01171875 211.0625 C92.36487031 212.3868532 91.68794652 213.69652239 91 215 C90.34 215 89.68 215 89 215 C89 215.66 89 216.32 89 217 C88.34 217 87.68 217 87 217 C87 217.66 87 218.32 87 219 C84.69 219.33 82.38 219.66 80 220 C79.74605469 221.2065625 79.49210937 222.413125 79.23046875 223.65625 C78.88313085 225.27090185 78.5354566 226.88548137 78.1875 228.5 C78.02185547 229.29148437 77.85621094 230.08296875 77.68554688 230.8984375 C75.88929204 239.16798804 72.91521502 246.51865504 69.125 254.0625 C68.79886719 254.73087891 68.47273438 255.39925781 68.13671875 256.08789062 C66.44104846 259.48253017 64.73028765 262.36912305 62.29296875 265.28125 C58.89803257 269.87627787 59.2198258 274.91697163 59.1875 280.4375 C59.16236328 281.45521484 59.13722656 282.47292969 59.11132812 283.52148438 C59.05280165 286.01471224 59.01627016 288.50619855 59 291 C59.60457031 291.29519531 60.20914062 291.59039062 60.83203125 291.89453125 C66.96835504 295.02350356 72.89703891 299.3959951 78 304 C78 304.66 78 305.32 78 306 C78.80824219 306.30744141 78.80824219 306.30744141 79.6328125 306.62109375 C82.95175551 308.55440544 85.31758577 311.24786653 87.875 314.0625 C88.68650513 314.93442993 88.68650513 314.93442993 89.5144043 315.82397461 C92.47670305 319.07117009 94.76908552 322.14541155 96.8125 326.0625 C99.41761286 330.34681212 102.89665528 331.29678698 107.5625 332.4375 C108.84253906 332.70433594 110.12257813 332.97117187 111.44140625 333.24609375 C114.53029389 333.90049036 117.10401271 334.79128299 120 336 C121.36748122 336.32509931 122.74318428 336.61755144 124.125 336.875 C129.6352774 338.0596199 134.74333277 339.98818908 140 342 C141.64954104 342.62162085 143.2992999 343.24266389 144.94921875 343.86328125 C146.77882565 344.55421151 148.60825092 345.24562296 150.4375 345.9375 C151.29504883 346.26121582 152.15259766 346.58493164 153.03613281 346.91845703 C172.05366225 354.15690089 192.1560797 361.95879485 208 375 C208.75539063 375.5465625 209.51078125 376.093125 210.2890625 376.65625 C218.78347219 382.84461719 227.5208313 390.83861841 231 401 C231.29519531 401.8146875 231.59039062 402.629375 231.89453125 403.46875 C235.78665455 416.69130587 235.24494446 432.53033325 233 446 C81.2 446 -70.6 446 -227 446 C-228.47400716 437.89296062 -229.35821525 431.33291436 -229.3125 423.3125 C-229.30686035 422.26956787 -229.3012207 421.22663574 -229.29541016 420.15209961 C-229.1039988 407.85723653 -228.57137472 395.57476978 -220 386 C-219.1646875 385.05769531 -218.329375 384.11539062 -217.46875 383.14453125 C-210.22963479 375.32558703 -202.06224271 369.52498158 -193 364 C-191.90945312 363.32839844 -190.81890625 362.65679687 -189.6953125 361.96484375 C-183.94609163 358.51969995 -178.1450621 355.65389241 -172 353 C-170.85724609 352.50330811 -170.85724609 352.50330811 -169.69140625 351.99658203 C-161.34189721 348.38612696 -153.01709749 344.79165655 -144.33203125 342.05859375 C-141.60472015 341.19212094 -138.90295308 340.28370484 -136.19921875 339.34765625 C-127.02603033 336.1928426 -117.98949987 333.20240872 -108.41723633 331.50585938 C-103.50590108 330.52617691 -101.22894029 328.75979997 -98 325 C-97.27039063 324.20980469 -96.54078125 323.41960937 -95.7890625 322.60546875 C-95.07492188 321.80753906 -94.36078125 321.00960938 -93.625 320.1875 C-92.84125 319.31480469 -92.0575 318.44210937 -91.25 317.54296875 C-89.90065349 316.01792608 -88.56309299 314.48214816 -87.25 312.92578125 C-80.35697472 304.75688351 -72.14521588 296.63840377 -63 291 C-62.34 291 -61.68 291 -61 291 C-59.75598552 276.1441279 -61.01771264 267.78451866 -70 256 C-73.65947227 249.64946542 -75.78935199 242.81789968 -77.8125 235.8125 C-78.03196289 235.06387695 -78.25142578 234.31525391 -78.47753906 233.54394531 C-79.84179521 228.55195796 -80.20504593 224.17301602 -80 219 C-82.97 219 -85.94 219 -89 219 C-89 218.34 -89 217.68 -89 217 C-89.66 217 -90.32 217 -91 217 C-91 216.34 -91 215.68 -91 215 C-91.66 215 -92.32 215 -93 215 C-94.4606285 212.35261084 -95 211.10551666 -95 208 C-95.66 208 -96.32 208 -97 208 C-102.68568303 191.14498025 -108.62178739 170.16650278 -101 153 C-100.34 152.01 -99.68 151.02 -99 150 C-98.34 150 -97.68 150 -97 150 C-97.47618832 146.91619904 -97.95647268 143.83304954 -98.4375 140.75 C-98.63956055 139.44095703 -98.63956055 139.44095703 -98.84570312 138.10546875 C-98.97783203 137.26113281 -99.10996094 136.41679687 -99.24609375 135.546875 C-99.42676392 134.38430176 -99.42676392 134.38430176 -99.61108398 133.19824219 C-99.95254566 131.04161006 -99.95254566 131.04161006 -100.53442383 129.15136719 C-101.62063265 124.1321369 -101.22642448 118.80901763 -101.24023438 113.68554688 C-101.24984474 111.53474818 -101.28084486 109.38494581 -101.3125 107.234375 C-101.46528143 87.4518978 -94.96137774 68.94653467 -81 54.625 C-70.94585987 45 -70.94585987 45 -67 45 C-66.85304687 44.443125 -66.70609375 43.88625 -66.5546875 43.3125 C-62.54389303 29.6665786 -52.26209568 21.94672701 -40.4609375 14.86328125 C-34.0123869 11.39154464 -27.1542143 8.62985697 -20 7 C-20 7.66 -20 8.32 -20 9 C-20.66 9 -21.32 9 -22 9 C-23.66489182 12.92438786 -24.87204037 16.89100419 -26 21 C-14.6600966 17.04962381 -5.5371161 11.0742322 0 0 Z " fill="#DDDDDD" transform="translate(246,45)"/>
<path d="M0 0 C0.33 0 0.66 0 1 0 C1.33 6.27 1.66 12.54 2 19 C3.98 19.99 3.98 19.99 6 21 C11.22541002 24.28107141 16.41602833 27.86423889 21 32 C21 32.66 21 33.32 21 34 C21.53882813 34.20496094 22.07765625 34.40992188 22.6328125 34.62109375 C25.95175551 36.55440544 28.31758577 39.24786653 30.875 42.0625 C31.41600342 42.64378662 31.95700684 43.22507324 32.5144043 43.82397461 C35.47670305 47.07117009 37.76908552 50.14541155 39.8125 54.0625 C42.41761286 58.34681212 45.89665528 59.29678698 50.5625 60.4375 C51.84253906 60.70433594 53.12257813 60.97117187 54.44140625 61.24609375 C57.53029389 61.90049036 60.10401271 62.79128299 63 64 C64.36748122 64.32509931 65.74318428 64.61755144 67.125 64.875 C72.6352774 66.0596199 77.74333277 67.98818908 83 70 C84.64954104 70.62162085 86.2992999 71.24266389 87.94921875 71.86328125 C89.77882565 72.55421151 91.60825092 73.24562296 93.4375 73.9375 C94.29504883 74.26121582 95.15259766 74.58493164 96.03613281 74.91845703 C115.05366225 82.15690089 135.1560797 89.95879485 151 103 C151.75539063 103.5465625 152.51078125 104.093125 153.2890625 104.65625 C161.78347219 110.84461719 170.5208313 118.83861841 174 129 C174.29519531 129.8146875 174.59039062 130.629375 174.89453125 131.46875 C178.78665455 144.69130587 178.24494446 160.53033325 176 174 C24.2 174 -127.6 174 -284 174 C-285.47400716 165.89296062 -286.35821525 159.33291436 -286.3125 151.3125 C-286.30686035 150.26956787 -286.3012207 149.22663574 -286.29541016 148.15209961 C-286.1039988 135.85723653 -285.57137472 123.57476978 -277 114 C-276.1646875 113.05769531 -275.329375 112.11539063 -274.46875 111.14453125 C-267.22963479 103.32558703 -259.06224271 97.52498158 -250 92 C-248.90945312 91.32839844 -247.81890625 90.65679687 -246.6953125 89.96484375 C-240.94609163 86.51969995 -235.1450621 83.65389241 -229 81 C-228.23816406 80.66887207 -227.47632813 80.33774414 -226.69140625 79.99658203 C-218.34189721 76.38612696 -210.01709749 72.79165655 -201.33203125 70.05859375 C-198.60472015 69.19212094 -195.90295308 68.28370484 -193.19921875 67.34765625 C-184.02603033 64.1928426 -174.98949987 61.20240872 -165.41723633 59.50585938 C-160.50590108 58.52617691 -158.22894029 56.75979997 -155 53 C-154.27039063 52.20980469 -153.54078125 51.41960937 -152.7890625 50.60546875 C-152.07492188 49.80753906 -151.36078125 49.00960937 -150.625 48.1875 C-149.84125 47.31480469 -149.0575 46.44210937 -148.25 45.54296875 C-146.90065349 44.01792608 -145.56309299 42.48214816 -144.25 40.92578125 C-137.44625193 32.86268559 -129.19264611 24.3334692 -120 19 C-119.01 19 -118.02 19 -117 19 C-117.00112793 20.01835937 -117.00225586 21.03671875 -117.00341797 22.0859375 C-116.99972262 25.89589946 -116.95671192 29.70461234 -116.90234375 33.51416016 C-116.88427304 35.15698148 -116.87659895 36.79995367 -116.87988281 38.44287109 C-117.24383919 50.38192519 -117.24383919 50.38192519 -111.79248047 60.51660156 C-108.69976953 63.07602837 -105.56819856 65.30939883 -102.125 67.375 C-101.38902588 67.83559814 -100.65305176 68.29619629 -99.89477539 68.77075195 C-96.87383519 70.65573874 -93.82930541 72.50008222 -90.77978516 74.33837891 C-73.86406707 84.53660877 -63.20116546 95.39560711 -58 115 C-56.1260758 112.1891137 -55.32238144 110.1133715 -54.3125 106.9375 C-52.15685849 100.84195939 -48.92669475 96.08914284 -45 91 C-43.8553125 89.453125 -43.8553125 89.453125 -42.6875 87.875 C-42.130625 87.25625 -41.57375 86.6375 -41 86 C-40.34 86 -39.68 86 -39 86 C-38.67 85.01 -38.34 84.02 -38 83 C-33.23739067 78.97285953 -28.13027032 75.45190613 -22 74 C-22 73.34 -22 72.68 -22 72 C-19.73701547 70.3633245 -17.48732888 68.85434489 -15.125 67.375 C-14.47402344 66.95476562 -13.82304687 66.53453125 -13.15234375 66.1015625 C-8.26838981 63 -8.26838981 63 -6 63 C-6 62.34 -6 61.68 -6 61 C-4.33333333 59.33333333 -2.66666667 57.66666667 -1 56 C0.29519995 53.83379456 0.29519995 53.83379456 1 52 C-0.485 52.4640625 -0.485 52.4640625 -2 52.9375 C-20.94311602 58.85722376 -43.46339453 55.56296842 -62 50 C-62 49.34 -62 48.68 -62 48 C-63.155 47.7525 -64.31 47.505 -65.5 47.25 C-70.06141704 46.12593652 -73.86773557 44.21371309 -78 42 C-78 41.34 -78 40.68 -78 40 C-78.886875 39.74863281 -79.77375 39.49726563 -80.6875 39.23828125 C-84.10857847 37.95941111 -86.21617845 36.52073505 -89 34.1875 C-89.86238281 33.46820313 -90.72476563 32.74890625 -91.61328125 32.0078125 C-92.40089844 31.34523438 -93.18851563 30.68265625 -94 30 C-94.57105469 29.56429688 -95.14210937 29.12859375 -95.73046875 28.6796875 C-100.34505442 25.1414261 -103.54915988 20.6123424 -107 16 C-108.11375 14.63875 -108.11375 14.63875 -109.25 13.25 C-112.23150501 9.41663641 -114.31106685 5.54712771 -116 1 C-115.34 1 -114.68 1 -114 1 C-112.78125 2.49609375 -112.78125 2.49609375 -111.5 4.4375 C-109.7134637 7.22531847 -109.7134637 7.22531847 -107 9 C-107 9.66 -107 10.32 -107 11 C-106.195625 11.3403125 -106.195625 11.3403125 -105.375 11.6875 C-103 13 -103 13 -99.9375 15.5625 C-97.19794312 18.13537799 -97.19794312 18.13537799 -94 19 C-94 19.66 -94 20.32 -94 21 C-93.154375 21.268125 -92.30875 21.53625 -91.4375 21.8125 C-88 23 -88 23 -84.5625 24.5 C-66.76260549 31.99469243 -45.89135546 30.50495211 -28.29394531 23.39746094 C-23.66779449 21.43332536 -19.92269992 19.10166971 -16 16 C-15.34 16 -14.68 16 -14 16 C-13.7525 15.41734375 -13.505 14.8346875 -13.25 14.234375 C-11.81474554 11.66885764 -10.22336987 10.16275202 -8 8.25 C-7.29875 7.63640625 -6.5975 7.0228125 -5.875 6.390625 C-4 5 -4 5 -2 5 C-1.34 3.35 -0.68 1.7 0 0 Z " fill="#B3B3B3" transform="translate(303,317)"/>
<path d="M0 0 C18.90761925 3.05541376 37.62673766 9.49279692 50 25 C57 36.12754159 57 36.12754159 57 41 C57.94875 41.20625 58.8975 41.4125 59.875 41.625 C72.46351836 45.29770656 82.92674883 55.12095449 89.47265625 66.1796875 C107.60537062 99.66260253 99.88588562 139.39066289 89.5234375 174.30078125 C87.40965627 181.02757917 84.83505496 187.54572595 82 194 C81.34 194 80.68 194 80 194 C76.83473068 189.44201218 75.88130768 185.72535047 75.8581543 180.25073242 C75.84760262 178.84358223 75.84760262 178.84358223 75.83683777 177.40800476 C75.83267349 176.40066788 75.82850922 175.39333099 75.82421875 174.35546875 C75.80102047 172.2128808 75.77690313 170.07030264 75.75195312 167.92773438 C75.71685559 164.55714356 75.68749766 161.18691338 75.67407227 157.81616211 C75.65856284 154.5579894 75.61833527 151.30086353 75.57421875 148.04296875 C75.57708138 146.54107246 75.57708138 146.54107246 75.58000183 145.00883484 C75.43804005 136.85181952 73.168891 132.25413399 67.75 126.125 C62.481731 119.54819766 59.33309273 111.68011614 56 104 C55.62617188 103.14664063 55.25234375 102.29328125 54.8671875 101.4140625 C50.14512172 88.26885237 50.32780251 73.77857197 50 60 C49.30777344 60.88751953 49.30777344 60.88751953 48.6015625 61.79296875 C47.94929687 62.58316406 47.29703125 63.37335938 46.625 64.1875 C45.99851562 64.96480469 45.37203125 65.74210937 44.7265625 66.54296875 C37.64929882 72.92061754 30.40804063 74.73275932 21.0859375 74.6015625 C20.0726236 74.60956879 19.05930969 74.61757507 18.01528931 74.62582397 C14.80144412 74.64871096 11.58887641 74.63952271 8.375 74.625 C-16.00312082 74.59532938 -38.51130801 75.2116413 -57.25 92.8125 C-67.10907256 103.14862446 -71.06155907 116.0429286 -73.1875 129.875 C-73.35185547 130.86113281 -73.51621094 131.84726563 -73.68554688 132.86328125 C-75.81472575 146.1210833 -76.2269056 159.39740265 -76.4296875 172.80273438 C-76.806669 187.08876246 -76.806669 187.08876246 -80 193 C-82.10693359 194.26635742 -82.10693359 194.26635742 -84 195 C-86.56444022 188.6079235 -88.32095049 182.18909717 -89.9375 175.5 C-90.46468719 173.34891996 -90.99203104 171.1978783 -91.51953125 169.046875 C-91.77299316 168.00724609 -92.02645508 166.96761719 -92.28759766 165.89648438 C-92.88866981 163.45264614 -93.50476314 161.0141101 -94.13671875 158.578125 C-94.96011182 155.38869729 -95.75163191 152.1945798 -96.51464844 148.99023438 C-96.84794047 147.62353587 -97.19575649 146.26032258 -97.55566406 144.90039062 C-100.560543 133.46049618 -101.39754054 122.28194552 -101.4375 110.5 C-101.44358276 109.8198584 -101.44966553 109.1397168 -101.45593262 108.43896484 C-101.57446973 88.20700148 -95.30441987 69.29842615 -81 54.625 C-70.94585987 45 -70.94585987 45 -67 45 C-66.85304687 44.443125 -66.70609375 43.88625 -66.5546875 43.3125 C-62.54389303 29.6665786 -52.26209568 21.94672701 -40.4609375 14.86328125 C-34.0123869 11.39154464 -27.1542143 8.62985697 -20 7 C-20 7.66 -20 8.32 -20 9 C-20.66 9 -21.32 9 -22 9 C-23.66489182 12.92438786 -24.87204037 16.89100419 -26 21 C-14.6600966 17.04962381 -5.5371161 11.0742322 0 0 Z " fill="#9F9F9F" transform="translate(246,45)"/>
<path d="M0 0 C0.33 0 0.66 0 1 0 C1.85509472 12.0378442 2.12757358 23.99687571 2.0625 36.0625 C2.05746482 37.71939966 2.05290555 39.37630083 2.04882812 41.03320312 C2.03800562 45.02217416 2.02085757 49.01106935 2 53 C-7.74037925 54.35411399 -17.33477864 55.41376744 -27.1875 55.4375 C-28.90030151 55.44330078 -28.90030151 55.44330078 -30.64770508 55.44921875 C-41.56659879 55.30333972 -51.58236801 53.12640617 -62 50 C-62 49.34 -62 48.68 -62 48 C-63.155 47.7525 -64.31 47.505 -65.5 47.25 C-70.06141704 46.12593652 -73.86773557 44.21371309 -78 42 C-78 41.34 -78 40.68 -78 40 C-78.886875 39.74863281 -79.77375 39.49726563 -80.6875 39.23828125 C-84.10857847 37.95941111 -86.21617845 36.52073505 -89 34.1875 C-89.86238281 33.46820313 -90.72476563 32.74890625 -91.61328125 32.0078125 C-92.40089844 31.34523438 -93.18851563 30.68265625 -94 30 C-94.57105469 29.56429688 -95.14210937 29.12859375 -95.73046875 28.6796875 C-100.34505442 25.1414261 -103.54915988 20.6123424 -107 16 C-108.11375 14.63875 -108.11375 14.63875 -109.25 13.25 C-112.23150501 9.41663641 -114.31106685 5.54712771 -116 1 C-115.34 1 -114.68 1 -114 1 C-112.78125 2.49609375 -112.78125 2.49609375 -111.5 4.4375 C-109.7134637 7.22531847 -109.7134637 7.22531847 -107 9 C-107 9.66 -107 10.32 -107 11 C-106.46375 11.226875 -105.9275 11.45375 -105.375 11.6875 C-103 13 -103 13 -99.9375 15.5625 C-97.19794312 18.13537799 -97.19794312 18.13537799 -94 19 C-94 19.66 -94 20.32 -94 21 C-93.154375 21.268125 -92.30875 21.53625 -91.4375 21.8125 C-88 23 -88 23 -84.5625 24.5 C-66.76260549 31.99469243 -45.89135546 30.50495211 -28.29394531 23.39746094 C-23.66779449 21.43332536 -19.92269992 19.10166971 -16 16 C-15.34 16 -14.68 16 -14 16 C-13.7525 15.41734375 -13.505 14.8346875 -13.25 14.234375 C-11.81474554 11.66885764 -10.22336987 10.16275202 -8 8.25 C-7.29875 7.63640625 -6.5975 7.0228125 -5.875 6.390625 C-4 5 -4 5 -2 5 C-1.34 3.35 -0.68 1.7 0 0 Z " fill="#C7C6C6" transform="translate(303,317)"/>
</svg>
